<svg id="Layer_3" data-name="Layer 3" xmlns="http://www.w3.org/2000/svg" viewBox="0 0 512 512"><defs><style>.cls-1{fill:#b3b3b8;}</style></defs><title>icon_new</title><path class="cls-1" d="M256,0C114.62,0,0,114.62,0,256S114.62,512,256,512,512,397.38,512,256,397.38,0,256,0ZM114.16,309.18A31.82,31.82,0,0,1,82.34,341h0a31.83,31.83,0,0,1-31.83-31.82V202.82A31.83,31.83,0,0,1,82.34,171h0a31.82,31.82,0,0,1,31.82,31.82Zm86.78,41A31.83,31.83,0,0,1,169.11,382h0a31.82,31.82,0,0,1-31.82-31.82V161.82A31.82,31.82,0,0,1,169.11,130h0a31.83,31.83,0,0,1,31.83,31.82Zm86.88,64.91A31.83,31.83,0,0,1,256,446.92h0a31.83,31.83,0,0,1-31.82-31.83V96.82A31.82,31.82,0,0,1,256,65h0a31.82,31.82,0,0,1,31.82,31.82Zm86.89-105.91A31.82,31.82,0,0,1,342.89,341h0a31.83,31.83,0,0,1-31.83-31.82V202.82A31.83,31.83,0,0,1,342.89,171h0a31.82,31.82,0,0,1,31.82,31.82Zm55,4.82h0a31.82,31.82,0,0,1-31.82-31.82V229.82A31.82,31.82,0,0,1,429.66,198h0a31.83,31.83,0,0,1,31.83,31.82v52.36A31.83,31.83,0,0,1,429.66,314Z"/></svg>